<svg width="7.8014cm" height="2.5169cm" version="1.1" viewBox="0 0 78.014 25.169" xmlns="http://www.w3.org/2000/svg"><g transform="translate(239.78 -307.9)"><g><g letter-spacing="0px" word-spacing="0px"><text x="1.837478" y="294.42752" fill="#000000" font-family="Cantarell" font-size="50.8px" stroke-width=".26458" style="line-height:1.25" xml:space="preserve"><tspan x="1.837478" y="340.04657" stroke-width=".26458"/></text><text x="-28.456198" y="233.94569" fill="#000000" font-family="Cantarell" font-size="8.4667px" stroke-width=".26458" style="line-height:1.25" xml:space="preserve"><tspan x="-28.456198" y="233.94569" font-family="Montserrat" font-size="3.5278px" font-weight="bold" stroke-width=".26458">ZAPIÁ</tspan></text><text x="30.26099" y="261.10913" fill="#ffffff" font-family="Montserrat" font-size="7.987px" font-weight="bold" stroke-width=".24959" style="line-height:1.25" xml:space="preserve"><tspan x="30.26099" y="261.10913" fill="#ffffff" font-family="'Maven Pro'" font-weight="bold" stroke-width=".24959">ZAPIÁ</tspan></text></g><rect y="247" width="90" height="50" fill="#fffdfd" style="paint-order:stroke fill markers"/><path d="m90.033 247h-90l-0.0096839 28.819 89.978-5.9816z" fill="#0f252d" style="paint-order:stroke fill markers"/><text x="28.164795" y="260.67886" fill="#000000" font-family="Cantarell" font-size="7.987px" letter-spacing="0px" stroke-width=".24959" word-spacing="0px" style="line-height:1.25" xml:space="preserve"><tspan x="28.164795" y="260.67886" fill="#ffffff" font-family="'Exo 2'" font-weight="bold" letter-spacing=".54661px" stroke-width=".24959">ZAPIÁ</tspan></text></g><g transform="matrix(.077503 0 0 .077503 24.854 38.081)"><path transform="scale(.26458)" d="m-914.71 10356c-50.514 0-91.18 40.666-91.18 91.179v60.077c0 50.513 40.666 91.179 91.18 91.179h686.06c50.514 0 91.18-40.666 91.18-91.179v-60.077c0-50.513-40.666-91.179-91.18-91.179zm429.25 242.44-86.213 120.82 299.09-120.82z" fill="#3ab410"/><path transform="scale(.26458)" d="m-571.67 10719-299.09 120.82h-43.945c-50.514 0-91.18 40.666-91.18 91.18v60.076c0 50.514 40.666 91.18 91.18 91.18h686.06c50.514 0 91.18-40.666 91.18-91.18v-60.076c0-50.514-40.666-91.18-91.18-91.18h-429.25z" fill="#307a94"/><g fill="none" stroke="#fff" stroke-linecap="round" stroke-linejoin="round" stroke-opacity=".73333"><g transform="translate(219.56 1591.5)" stroke-width="2.965"><path d="m-460.17 1324.1h61.568"/><path d="m-389.98 1324.1h34.39"/><path d="m-347.09 1324.1h65.626"/></g><g transform="translate(219.56 1587.8)" stroke-width="2.965"><path d="m-460.17 1312.4h39.896"/><path d="m-413.18 1312.4h69.21"/><path d="m-335.67 1312.4h54.202"/></g><g transform="translate(219.56 1584)"><path d="m-460.17 1300.6h56.643" stroke-width="2.965"/><path d="m-395.97 1300.6h39.661" stroke-width="2.965"/><path d="m-348.57 1300.6h67.108" stroke-width="2.965"/></g></g><g fill="none" stroke="#fff" stroke-linecap="round" stroke-linejoin="round" stroke-opacity=".73333"><g transform="translate(219.56 1463.5)" stroke-width="2.965"><path d="m-460.17 1324.1h61.568"/><path d="m-389.98 1324.1h34.39"/><path d="m-347.09 1324.1h65.626"/></g><g transform="translate(219.56 1459.7)" stroke-width="2.965"><path d="m-460.17 1312.4h39.896"/><path d="m-413.18 1312.4h69.21"/><path d="m-335.67 1312.4h54.202"/></g><g transform="translate(219.56 1455.9)"><path d="m-460.17 1300.6h56.643" stroke-width="2.965"/><path d="m-395.97 1300.6h39.661" stroke-width="2.965"/><path d="m-348.57 1300.6h67.108" stroke-width="2.965"/></g></g></g><path d="m28.26 262.86h18.098" fill="none" stroke="#fff" stroke-linecap="round" stroke-linejoin="round" stroke-opacity=".45059" stroke-width=".32734"/><g transform="matrix(.8 0 0 .8 -4.7222 58.514)"><rect x="36.744" y="290.84" width="7.8315" height="4.5182" ry=".75303" fill="#76bbd3" style="paint-order:stroke fill markers"/><rect x="35.87" y="290.04" width="7.8315" height="4.5182" ry=".75303" fill="none" stroke="#000" stroke-linecap="round" stroke-linejoin="round" stroke-width=".517" style="paint-order:stroke fill markers"/><path d="m36.156 290.21 3.6295 2.094 3.6295-2.094" fill="none" stroke="#000" stroke-linecap="round" stroke-linejoin="round" stroke-width=".517"/></g><g><path transform="matrix(.83009 0 0 .72533 10.839 76.356)" d="m77.006 291.48-7.7862-13.486h15.572z" fill="#caf697" style="paint-order:stroke fill markers"/><path transform="matrix(.26458 0 0 .26458 0 247)" d="m233.34 57.312c-21.208 0-38.281 15.17-38.281 34.01 0 18.84 17.073 34.006 38.281 34.006h106.82v-68.016z" fill="#b5f26e" style="paint-order:stroke fill markers"/><text x="33.771629" y="293.25073" fill="#000000" font-family="Cantarell" font-size="3.2657px" letter-spacing="0px" stroke-width=".10205" word-spacing="0px" style="line-height:1.25" xml:space="preserve"><tspan x="33.771629" y="293.25073" font-family="Montserrat" font-size="2.8222px" font-weight="bold" stroke-width=".10205">contato@zapia.com.br</tspan></text></g><g transform="matrix(.8 0 0 .8 -4.6222 58.312)"><circle cx="40.566" cy="282.84" r="3.5535" fill="#76bbd3" style="paint-order:stroke fill markers"/><circle cx="39.629" cy="282.02" r="3.5535" fill="none" stroke="#000" stroke-linecap="round" stroke-linejoin="round" stroke-width=".517" style="paint-order:stroke fill markers"/><path d="m41.538 279.02c-0.66646 0.20432-1.3037 0.31732-1.9418 0.32507-0.62982 8e-3 -1.2702-0.0871-1.9489-0.27863a3.5535 3.5535 0 0 0-0.49012 0.39371c0.85099 0.27614 1.6508 0.41194 2.445 0.40229 0.80657-0.01 1.6012-0.16746 2.4339-0.45781a3.5535 3.5535 0 0 0-0.49819-0.38463zm1.2175 1.3104c-1.0007 0.22105-2.1705 0.33256-3.3344 0.32355-1.028-8e-3 -2.0495-0.10926-2.9397-0.28468a3.5535 3.5535 0 0 0-0.20998 0.49112c0.95711 0.19666 2.0438 0.30038 3.1456 0.30891 1.2379 0.01 2.4797-0.0997 3.5555-0.34929a3.5535 3.5535 0 0 0-0.21704-0.48961zm-6.6673 1.4244a3.5535 3.5535 0 0 0-0.01261 0.25793 3.5535 3.5535 0 0 0 0.01011 0.25894h7.0837a3.5535 3.5535 0 0 0 0.01313-0.25894 3.5535 3.5535 0 0 0-0.0101-0.25793zm3.3289 1.1009c-1.1016 9e-3 -2.1881 0.11242-3.1451 0.30941a3.5535 3.5535 0 0 0 0.20897 0.49163c0.89034-0.1751 1.912-0.27621 2.9402-0.28418 1.1647-9e-3 2.3352 0.10263 3.3364 0.32355a3.5535 3.5535 0 0 0 0.21401-0.49011c-1.0755-0.24988-2.317-0.35989-3.5545-0.3503zm0.18524 1.3068c-0.79308-0.01-1.5918 0.12555-2.4415 0.40077a3.5535 3.5535 0 0 0 0.48406 0.39573c0.67961-0.19213 1.3208-0.28729 1.9514-0.27964 0.63985 8e-3 1.2789 0.12107 1.9473 0.32658a3.5535 3.5535 0 0 0 0.49416-0.38563c-0.83327-0.29057-1.6284-0.44801-2.4354-0.45781z" color="#000000" color-rendering="auto" dominant-baseline="auto" image-rendering="auto" shape-rendering="auto" solid-color="#000000" style="font-feature-settings:normal;font-variant-alternates:normal;font-variant-caps:normal;font-variant-ligatures:normal;font-variant-numeric:normal;font-variant-position:normal;isolation:auto;mix-blend-mode:normal;shape-padding:0;text-decoration-color:#000000;text-decoration-line:none;text-decoration-style:solid;text-indent:0;text-orientation:mixed;text-transform:none;white-space:normal"/><path transform="matrix(.26458 0 0 .26458 0 247)" d="m149.78 118.92a13.43 13.43 0 0 0-0.97852 0.0391v26.771a13.43 13.43 0 0 0 0.97852 0.0508 13.43 13.43 0 0 0 0.97461-0.0391v-26.775a13.43 13.43 0 0 0-0.97461-0.0449z" color="#000000" color-rendering="auto" dominant-baseline="auto" image-rendering="auto" shape-rendering="auto" solid-color="#000000" style="font-feature-settings:normal;font-variant-alternates:normal;font-variant-caps:normal;font-variant-ligatures:normal;font-variant-numeric:normal;font-variant-position:normal;isolation:auto;mix-blend-mode:normal;shape-padding:0;text-decoration-color:#000000;text-decoration-line:none;text-decoration-style:solid;text-indent:0;text-orientation:mixed;text-transform:none;white-space:normal"/></g><rect x="27.175" y="278.06" width="4.5837" height="10.43" ry=".99218" fill="none" style="paint-order:stroke fill markers"/><text x="33.859119" y="285.00003" fill="#000000" font-family="Cantarell" font-size="3.2657px" letter-spacing="0px" stroke-width=".10205" word-spacing="0px" style="line-height:1.25" xml:space="preserve"><tspan x="33.859119" y="285.00003" font-family="Montserrat" font-size="2.8222px" font-weight="bold" stroke-width=".10205">www.zapia.com.br</tspan></text><g transform="translate(-66.978 26.754)" shape-rendering="optimizeSpeed" stroke-width=".089957"><rect x="69.23" y="250.57" width="17.991" height="17.991" fill="#fff"/><path d="m70.355 251.7v4.4079h4.4079v-4.4079h-3.7782zm5.0376 0v0.62969h0.6297v-0.62969zm0.6297 0.62969v0.6297h0.6297v0.62971h0.6297v-1.2594h-0.6297zm1.2594 0h1.8891v0.6297h-1.2594v1.2594h0.6297v0.6297h-0.6297v1.2594h0.6297v-0.6297h0.6297v0.6297h0.6297v-1.8891h-0.6297v-0.62969h0.6297v-1.8891h-2.5188zm2.5188 1.2594v0.62969h1.2594v-0.62969h-0.6297zm-0.6297 2.5188h-0.6297v0.62969h0.6297zm0 0.62969v0.62971h-1.2594v0.6297h1.8891v0.6297h0.6297v1.2594h-0.6297v-1.2594h-0.6297v3.1485h0.6297v-0.6297h0.6297v0.6297h-0.6297v1.2594h0.6297v0.6297h-0.6297v-0.6297h-0.6297v0.6297h-1.2594v1.2594h0.6297v-0.6297h0.6297v0.6297h0.6297v0.6297h-1.8891v0.6297h2.5188v-0.6297h1.8891v1.2594h1.2594v-1.2594h-0.6297v-0.6297h0.6297v0.6297h0.6297v-1.2594h-0.6297v-0.6297h0.6297v-0.6297h-0.6297v-1.8891h0.6297v1.2594h0.6297v0.6297h0.6297v-1.2594h-0.6297v-0.6297h0.6297v0.6297h0.6297v-1.2594h-0.6297v-0.6297h-0.6297v0.6297h-1.2594v-0.6297h-0.6297v1.2594h-0.6297v0.6297h-1.2594v-0.6297h0.6297v-0.6297h-0.6297v-0.6297h1.2594v-0.6297h-1.2594v-1.2594h-0.6297v-0.6297h0.6297v-0.62971h-1.2594zm1.8891 0.62971v0.6297h0.6297v-0.6297zm0.6297 0h0.6297v-0.62971h-0.6297zm0.6297 0v0.6297h-0.6297v0.6297h0.6297v0.6297h0.6297v-1.2594h0.6297v1.2594h1.8891v0.6297h0.6297v-1.8891h-0.6297v0.6297h-1.2594v-0.6297h1.2594v-0.6297h-2.5188zm3.1485 0h0.6297v-0.62971h-0.6297zm0 5.6673v0.6297h0.6297v-0.6297zm0 0.6297h-0.6297v1.8891h-0.6297v1.2594h1.2594v0.6297h0.6297v-3.1485h-0.6297zm-1.2594 3.1485h-0.6297v0.6297h0.6297zm-6.297-3.1485v-0.6297h0.6297v-0.6297h-1.2594v-0.6297h0.6297v-0.6297h0.6297v-0.6297h-2.5188v0.6297h-0.6297v0.6297h1.2594v0.6297h-1.2594v0.6297h0.6297v0.6297h0.6297v1.2594h0.6297v-1.2594zm-1.2594 1.2594h-0.6297v-0.6297h-0.6297v1.2594h1.2594zm1.8891-2.5188h0.6297v-0.6297h-0.6297zm-0.6297-4.4079h-1.2594v0.6297h-0.6297v0.6297h-0.6297v0.6297h1.2594v-0.6297h0.6297v0.6297h1.2594v-1.2594h-0.6297zm-2.5188 1.2594v-1.2594h-1.2594v0.6297h0.6297v0.6297zm-0.6297 0h-0.6297v0.6297h0.6297zm-0.6297 0v-0.6297h-0.6297v0.6297zm0-1.2594v-0.6297h-0.6297v-0.62971h-1.2594v0.62971h0.6297v0.6297h0.6297zm-1.8891-0.6297h-0.6297v0.6297h0.6297zm-0.6297 0v-0.62971h-1.2594v5.6673h0.6297v-1.2594h0.6297v0.6297h0.6297v-0.6297h0.6297v-0.6297h-1.8891v-1.2594h1.2594v-0.6297h-1.2594v-1.2594zm0.6297 1.8891v0.6297h0.6297v-0.6297zm0.6297 0.6297v0.6297h0.6297v-0.6297zm0 1.2594v0.6297h0.6297v-0.6297zm0.6297 0.6297v0.6297h1.2594v-0.6297h-0.6297zm0.6297-4.4079h0.6297v-0.62971h-0.6297zm1.2594 0.6297h1.2594v-0.6297h1.2594v-1.2594h-0.6297v-1.2594h-0.6297v1.8891h-0.6297v0.62971h-0.6297zm0.6297-1.2594v-1.2594h-0.6297v1.2594zm0.6297-1.8891v-0.6297h-0.6297v0.6297zm0.6297 0h0.6297v-0.6297h-0.6297zm4.4079-3.1485v4.4079h4.4079v-4.4079h-3.7782zm-10.705 0.62969h3.1485v3.1485h-3.1485v-2.5188zm11.335 0h3.1485v3.1485h-3.1485v-2.5188zm-10.705 0.6297v1.8891h1.8891v-1.8891h-1.2594zm11.335 0v1.8891h1.8891v-1.8891h-1.2594zm-2.5188 2.5188v0.6297h0.6297v-0.6297zm-6.297 5.0376v0.6297h0.6297v-0.6297zm6.9267 1.8891h1.8891v1.8891h-1.8891v-1.2594zm-10.705 0.6297v4.4079h4.4079v-4.4079h-3.7782zm11.335 0v0.6297h0.6297v-0.6297zm-10.705 0.6297h3.1485v3.1485h-3.1485v-2.5188zm0.6297 0.6297v1.8891h1.8891v-1.8891h-1.2594zm3.7782 1.8891v1.2594h1.8891v-1.2594h-1.2594zm5.6673 0v0.6297h-0.6297v0.6297h1.2594v-1.2594zm-3.1485 0.6297v0.6297h1.8891v-0.6297h-1.2594z"/></g><text x="57.850357" y="269.76431" fill="#ffffff" font-family="'Roboto Slab'" font-size="5.5496px" font-weight="bold" letter-spacing="0px" opacity=".99" stroke-width=".17342" word-spacing="0px" style="line-height:1.25" xml:space="preserve"><tspan x="57.850357" y="269.76431">Soluções</tspan><tspan x="57.850357" y="276.75879">em chatbot</tspan></text><text x="57.850357" y="269.43024" fill="#215365" font-family="'Roboto Slab'" font-size="5.5496px" font-weight="bold" letter-spacing="0px" stroke-width=".17342" word-spacing="0px" style="line-height:1.25" xml:space="preserve"><tspan x="57.850357" y="269.43024">Soluções</tspan><tspan x="57.850357" y="276.42471">em chatbot</tspan></text><g><rect x="-116.18" y="302.8" width="88.867" height="35.36" fill="#052d4c" opacity=".99" style="paint-order:stroke fill markers"/><text x="-74.009651" y="325.18491" fill="#ffffff" font-family="Cantarell" font-size="12.202px" letter-spacing="0px" opacity=".97" stroke-width=".38131" word-spacing="0px" style="line-height:1.25" xml:space="preserve"><tspan x="-74.009651" y="325.18491" fill="#ffffff" font-family="'Exo 2'" font-weight="bold" letter-spacing="1.5875px" stroke-width=".38131">ZAPIÁ</tspan></text><path d="m-108.46 307.9c-1.75 0-3.1588 1.4088-3.1588 3.1588v2.0813c0 1.75 1.4088 3.1588 3.1588 3.1588h23.768c1.75 0 3.1588-1.4088 3.1588-3.1588v-2.0813c0-1.75-1.4088-3.1588-3.1588-3.1588zm14.871 8.3989-2.9867 4.1856 10.362-4.1856z" fill="#3ab410"/><path d="m-96.58 320.48-10.362 4.1856h-1.5224c-1.75 0-3.1588 1.4088-3.1588 3.1588v2.0812c0 1.75 1.4088 3.1588 3.1588 3.1588h23.768c1.75 0 3.1588-1.4088 3.1588-3.1588v-2.0812c0-1.75-1.4088-3.1588-3.1588-3.1588h-14.871z" fill="#307a94"/></g><g fill="none" stroke="#fff" stroke-linecap="round" stroke-linejoin="round" stroke-opacity=".73333"><g transform="matrix(.13094 0 0 .13094 -48.027 157.52)" stroke-width="2.965"><path d="m-460.17 1324.1h61.568"/><path d="m-389.98 1324.1h34.39"/><path d="m-347.09 1324.1h65.626"/></g><g transform="matrix(.13094 0 0 .13094 -48.027 157.03)" stroke-width="2.965"><path d="m-460.17 1312.4h39.896"/><path d="m-413.18 1312.4h69.21"/><path d="m-335.67 1312.4h54.202"/></g><g transform="matrix(.13094 0 0 .13094 -48.027 156.53)"><path d="m-460.17 1300.6h56.643" stroke-width="2.965"/><path d="m-395.97 1300.6h39.661" stroke-width="2.965"/><path d="m-348.57 1300.6h67.108" stroke-width="2.965"/></g></g><g fill="none" stroke="#fff" stroke-linecap="round" stroke-linejoin="round"><g stroke-opacity=".73333"><g transform="matrix(.13094 0 0 .13094 -48.027 140.75)" stroke-width="2.965"><path d="m-460.17 1324.1h61.568"/><path d="m-389.98 1324.1h34.39"/><path d="m-347.09 1324.1h65.626"/></g><g transform="matrix(.13094 0 0 .13094 -48.027 140.26)" stroke-width="2.965"><path d="m-460.17 1312.4h39.896"/><path d="m-413.18 1312.4h69.21"/><path d="m-335.67 1312.4h54.202"/></g><g transform="matrix(.13094 0 0 .13094 -48.027 139.76)"><path d="m-460.17 1300.6h56.643" stroke-width="2.965"/><path d="m-395.97 1300.6h39.661" stroke-width="2.965"/><path d="m-348.57 1300.6h67.108" stroke-width="2.965"/></g></g><path d="m-72.755 329.09h27.128" stroke-opacity=".33634" stroke-width=".58208"/><path d="m-63.551 312.34h27.128" stroke-opacity=".33634" stroke-width=".58208"/></g><g fill="#fff"><path d="m-195.53 323.76h-4.0876l3.99-5.5641v-1.4276h-5.9545v1.4276h3.9046l-4.0022 5.5641v1.4276h6.1498z" opacity=".97"/><path d="m-188.03 322.98 0.61009 2.2086h1.8913l-2.4282-7.9312c-0.0732-0.30505-0.32945-0.48808-0.6467-0.48808h-1.7571c-0.30504 0-0.57349 0.18303-0.6467 0.48808l-2.4282 7.9312h1.9035l0.6101-2.2086zm-0.40267-1.4398h-2.0987l0.70771-2.5746 0.18303-0.79312h0.32945c0.0366 0.25624 0.10981 0.53688 0.17082 0.79312z" opacity=".97"/><path d="m-179.88 316.66c-1.513 0-2.1841 0.0122-3.1969 0.10982v8.4193h1.8547v-3.1237c0.48807 0.061 1.0372 0.0976 1.5862 0.0976 2.0865 0 2.8308-0.58569 2.8308-2.7576 0-2.1475-0.74432-2.7454-3.0749-2.7454zm-1.3422 4.0754v-2.6478h1.3056c0.95175 0 1.2446 0.26844 1.2446 1.3178 0 1.0494-0.29285 1.3178-1.2446 1.33z" opacity=".97"/><path d="m-172.15 325.18v-8.4193h-1.8547v8.4193z" opacity=".97"/><path d="m-166.21 316.36 2.7454-1.3422-0.82973-1.2446-2.4526 1.8059zm1.9279 6.6134 0.61009 2.2086h1.9035l-2.4404-7.9312c-0.0732-0.30505-0.32945-0.48808-0.6345-0.48808h-1.7693c-0.30505 0-0.56129 0.18303-0.6467 0.48808l-2.4282 7.9312h1.9035l0.61009-2.2086zm-0.40267-1.4398h-2.0987l0.70772-2.5746c0.061-0.25624 0.13422-0.53688 0.18302-0.79312h0.32946c0.0366 0.25624 0.10981 0.53688 0.17082 0.79312z" opacity=".97"/></g><path d="m-236.62 307.9c-1.75 0-3.1588 1.4088-3.1588 3.1588v2.0813c0 1.75 1.4088 3.1588 3.1588 3.1588h23.768c1.75 0 3.1588-1.4088 3.1588-3.1588v-2.0813c0-1.75-1.4088-3.1588-3.1588-3.1588zm14.871 8.3989-2.9867 4.1856 10.362-4.1856z" fill="#3ab410"/><path d="m-224.74 320.48-10.362 4.1856h-1.5224c-1.75 0-3.1588 1.4088-3.1588 3.1588v2.0812c0 1.75 1.4088 3.1588 3.1588 3.1588h23.768c1.75 0 3.1588-1.4088 3.1588-3.1588v-2.0812c0-1.75-1.4088-3.1588-3.1588-3.1588h-14.871z" fill="#307a94"/><g fill="none" stroke="#fff" stroke-linecap="round" stroke-linejoin="round" stroke-opacity=".73333"><g transform="matrix(.13094 0 0 .13094 -176.18 157.52)" stroke-width="2.965"><path d="m-460.17 1324.1h61.568"/><path d="m-389.98 1324.1h34.39"/><path d="m-347.09 1324.1h65.626"/></g><g transform="matrix(.13094 0 0 .13094 -176.18 157.03)" stroke-width="2.965"><path d="m-460.17 1312.4h39.896"/><path d="m-413.18 1312.4h69.21"/><path d="m-335.67 1312.4h54.202"/></g><g transform="matrix(.13094 0 0 .13094 -176.18 156.53)"><path d="m-460.17 1300.6h56.643" stroke-width="2.965"/><path d="m-395.97 1300.6h39.661" stroke-width="2.965"/><path d="m-348.57 1300.6h67.108" stroke-width="2.965"/></g></g><g fill="none" stroke="#fff" stroke-linecap="round" stroke-linejoin="round"><g stroke-opacity=".73333"><g transform="matrix(.13094 0 0 .13094 -176.18 140.75)" stroke-width="2.965"><path d="m-460.17 1324.1h61.568"/><path d="m-389.98 1324.1h34.39"/><path d="m-347.09 1324.1h65.626"/></g><g transform="matrix(.13094 0 0 .13094 -176.18 140.26)" stroke-width="2.965"><path d="m-460.17 1312.4h39.896"/><path d="m-413.18 1312.4h69.21"/><path d="m-335.67 1312.4h54.202"/></g><g transform="matrix(.13094 0 0 .13094 -176.18 139.76)"><path d="m-460.17 1300.6h56.643" stroke-width="2.965"/><path d="m-395.97 1300.6h39.661" stroke-width="2.965"/><path d="m-348.57 1300.6h67.108" stroke-width="2.965"/></g></g><path d="m-200.91 329.09h27.128" stroke-opacity=".33634" stroke-width=".58208"/><path d="m-191.71 312.34h27.128" stroke-opacity=".33634" stroke-width=".58208"/></g></g></svg>
